<svg xmlns="http://www.w3.org/2000/svg" viewBox="0 0 30 30" width="30" height="30">
  <defs>
    <linearGradient id="cargoGradient" x1="0%" y1="0%" x2="0%" y2="100%">
      <stop offset="0%" style="stop-color:#2a88e0;stop-opacity:1" />
      <stop offset="100%" style="stop-color:#1976d2;stop-opacity:1" />
    </linearGradient>
    <linearGradient id="cabGradient" x1="0%" y1="0%" x2="0%" y2="100%">
      <stop offset="0%" style="stop-color:#d3ecfd;stop-opacity:1" />
      <stop offset="100%" style="stop-color:#bbdefb;stop-opacity:1" />
    </linearGradient>
    <linearGradient id="windowGradient" x1="0%" y1="0%" x2="0%" y2="100%">
      <stop offset="0%" style="stop-color:#ffffff;stop-opacity:0.8" />
      <stop offset="100%" style="stop-color:#e1f5fe;stop-opacity:0.6" />
    </linearGradient>
    <radialGradient id="hubcapGradient" cx="50%" cy="50%" r="50%" fx="50%" fy="50%">
      <stop offset="0%" style="stop-color:#e0e0e0;stop-opacity:1" />
      <stop offset="100%" style="stop-color:#b0b0b0;stop-opacity:1" />
    </radialGradient>
  </defs>

  <ellipse cx="15" cy="27" rx="13" ry="2" fill="#e0e0e0" opacity="0.5"/>

  <g id="truck">
    <rect x="2" y="8" width="16" height="14" rx="1" ry="1" fill="url(#cargoGradient)"/>
    <circle cx="4" cy="10" r="0.3" fill="#ffffff" opacity="0.5"/>
    <circle cx="16" cy="10" r="0.3" fill="#ffffff" opacity="0.5"/>
    <circle cx="4" cy="20" r="0.3" fill="#ffffff" opacity="0.5"/>
    <circle cx="16" cy="20" r="0.3" fill="#ffffff" opacity="0.5"/>
    <text x="5" y="16" font-family="Arial, sans-serif" font-size="3" fill="#ffffff" opacity="0.8">D</text>

    <path d="M18 12 C18 11, 20 10, 22 10 H24 C26 10, 27 11, 28 12 V16 C28 18, 27 20, 26 21 H18 Z" fill="url(#cabGradient)"/>
    <path d="M19 13 H23 V17 H19 Z" fill="url(#windowGradient)" rx="0.5" ry="0.5"/>
    <rect x="24" y="16" width="1.5" height="0.5" rx="0.25" ry="0.25" fill="#757575"/>
    <rect x="25" y="18" width="2" height="3" rx="0.5" ry="0.5" fill="#9e9e9e"/>
    <rect x="25.25" y="18.5" width="1.5" height="0.3" fill="#ffffff"/>
    <rect x="25.25" y="19.2" width="1.5" height="0.3" fill="#ffffff"/>
    <rect x="25.25" y="19.9" width="1.5" height="0.3" fill="#ffffff"/>
    <circle cx="27" cy="19.5" r="0.8" fill="#ffff8d" stroke="#fbc02d" stroke-width="0.3"/> <circle cx="26" cy="14" r="0.4" fill="#ffb74d"/> <path d="M17.5 13 L18 12.5 H19 L18.5 13.5 Z" fill="#9e9e9e" stroke="#757575" stroke-width="0.2"/>
    <rect x="18" y="21" width="3" height="0.8" rx="0.4" ry="0.4" fill="#bdbdbd"/>

    <g transform="translate(8, 24)">
      <circle cx="0" cy="0" r="3.5" fill="#212121" stroke="#424242" stroke-width="0.5"/>
      <circle cx="0" cy="0" r="2" fill="url(#hubcapGradient)" stroke="#bdbdbd" stroke-width="0.3"/>
    </g>
    <g transform="translate(23, 24)">
      <circle cx="0" cy="0" r="3.5" fill="#212121" stroke="#424242" stroke-width="0.5"/>
      <circle cx="0" cy="0" r="2" fill="url(#hubcapGradient)" stroke="#bdbdbd" stroke-width="0.3"/>
    </g>
  </g>
</svg>
