<svg xmlns="http://www.w3.org/2000/svg" viewBox="0 0 30 30" width="30" height="30">
  <rect x="5" y="2" width="22" height="26" fill="#111111"/>
  <rect x="4" y="2" width="21" height="26" fill="#212121"/>

  <line x1="4" y1="2" x2="25" y2="2" stroke="#424242" stroke-width="1"/>

  <rect x="7" y="5" width="4" height="17" fill="#37474f"/>
  <line x1="7" y1="9" x2="11" y2="9" stroke="#263238" stroke-width="1"/>
  <line x1="7" y1="13" x2="11" y2="13" stroke="#263238" stroke-width="1"/>
  <line x1="7" y1="17" x2="11" y2="17" stroke="#263238" stroke-width="1"/>
  <polygon points="7,5 11,5 7,9" fill="#546e7a" opacity="0.6"/> <rect x="13" y="5" width="4" height="17" fill="#37474f"/>
  <line x1="13" y1="9" x2="17" y2="9" stroke="#263238" stroke-width="1"/>
  <line x1="13" y1="13" x2="17" y2="13" stroke="#263238" stroke-width="1"/>
  <line x1="13" y1="17" x2="17" y2="17" stroke="#263238" stroke-width="1"/>
  <polygon points="13,5 17,5 13,9" fill="#546e7a" opacity="0.6"/> <rect x="19" y="5" width="4" height="17" fill="#37474f"/>
  <line x1="19" y1="9" x2="23" y2="9" stroke="#263238" stroke-width="1"/>
  <line x1="19" y1="13" x2="23" y2="13" stroke="#263238" stroke-width="1"/>
  <line x1="19" y1="17" x2="23" y2="17" stroke="#263238" stroke-width="1"/>
  <polygon points="19,5 23,5 19,9" fill="#546e7a" opacity="0.6"/> <rect x="6" y="23" width="18" height="5" fill="#424242"/>
  <rect x="11" y="24" width="8" height="4" fill="#80deea" opacity="0.7"/>
  <line x1="15" y1="24" x2="15" y2="28" stroke="#ffffff" stroke-width="0.5"/>
  
  <line x1="15" y1="2" x2="15" y2="0" stroke="#9e9e9e" stroke-width="1"/>
  <line x1="10" y1="2" x2="10" y2="1" stroke="#9e9e9e" stroke-width="0.5"/>
</svg>
