<svg xmlns="http://www.w3.org/2000/svg" viewBox="0 0 30 30" width="30" height="30">
  <rect x="4" y="5" width="22" height="23" fill="#f5f5f5" stroke="#bdbdbd" stroke-width="1"/>
  
  <rect x="2" y="4" width="26" height="2" fill="#9e9e9e"/>
  
  <rect x="7" y="9" width="16" height="5" fill="#81d4fa" stroke="#607d8b" stroke-width="0.5"/>
  <line x1="11" y1="9" x2="11" y2="14" stroke="#ffffff" stroke-width="1"/>
  <line x1="15" y1="9" x2="15" y2="14" stroke="#ffffff" stroke-width="1"/>
  <line x1="19" y1="9" x2="19" y2="14" stroke="#ffffff" stroke-width="1"/>
  <polygon points="7,9 11,9 7,12" fill="#e1f5fe" opacity="0.6"/>
  
  <rect x="7" y="16" width="16" height="5" fill="#81d4fa" stroke="#607d8b" stroke-width="0.5"/>
  <line x1="11" y1="16" x2="11" y2="21" stroke="#ffffff" stroke-width="1"/>
  <line x1="15" y1="16" x2="15" y2="21" stroke="#ffffff" stroke-width="1"/>
  <line x1="19" y1="16" x2="19" y2="21" stroke="#ffffff" stroke-width="1"/>
  <polygon points="7,16 11,16 7,19" fill="#e1f5fe" opacity="0.6"/>

  <rect x="7" y="22" width="2" height="6" fill="#e0e0e0"/>
  <rect x="21" y="22" width="2" height="6" fill="#e0e0e0"/>
  
  <rect x="11" y="23" width="8" height="5" fill="#424242"/>
  <rect x="12" y="24" width="6" height="4" fill="#b3e5fc"/>
  <line x1="15" y1="24" x2="15" y2="28" stroke="#ffffff" stroke-width="0.5"/>

  <circle cx="5" cy="27" r="1.5" fill="#4caf50"/>
  <circle cx="25" cy="27" r="1.5" fill="#4caf50"/>
</svg>
