<svg xmlns="http://www.w3.org/2000/svg" viewBox="0 0 16 16" width="30" height="30">
  <rect x="1" y="15" width="14" height="1" fill="#d84315"/>
  <rect x="1" y="14" width="14" height="1" fill="#f57c00"/>

  <rect x="3" y="3" width="10" height="12" fill="#f57c00"/>

  <rect x="4" y="4" width="8" height="11" fill="#ffe0b2"/>

  <rect x="7" y="0" width="2" height="2" fill="#d32f2f"/>
  <rect x="7" y="0" width="1" height="1" fill="#ef5350"/>
  <rect x="7" y="2" width="2" height="2" fill="#ffb74d"/>

  <rect x="5" y="5" width="6" height="1" fill="#f57c00"/>
  <rect x="5" y="7" width="6" height="1" fill="#f57c00"/>
  <rect x="5" y="9" width="6" height="1" fill="#f57c00"/>

  <rect x="6" y="11" width="4" height="4" fill="#d84315"/>
  <rect x="7" y="12" width="2" height="3" fill="#ffb74d"/>
  <rect x="8" y="13" width="1" height="1" fill="#ffe0b2"/>

  <rect x="2" y="9" width="2" height="2" fill="#2e7d32"/>
  <rect x="1" y="11" width="3" height="3" fill="#2e7d32"/>
  <rect x="2" y="10" width="1" height="1" fill="#66bb6a"/>
  <rect x="2" y="12" width="1" height="1" fill="#66bb6a"/>

  <rect x="12" y="9" width="2" height="2" fill="#2e7d32"/>
  <rect x="12" y="11" width="3" height="3" fill="#2e7d32"/>
  <rect x="13" y="10" width="1" height="1" fill="#66bb6a"/>
  <rect x="13" y="12" width="1" height="1" fill="#66bb6a"/>
</svg>
