<svg xmlns="http://www.w3.org/2000/svg" viewBox="0 0 30 30" width="30" height="30">
  <rect x="2" y="12" width="26" height="16" fill="#2e7d32"/>
  <circle cx="5" cy="18" r="3" fill="#1b5e20"/>
  <circle cx="9" cy="20" r="3" fill="#1b5e20"/>
  <circle cx="21" cy="20" r="3" fill="#1b5e20"/>
  <circle cx="25" cy="18" r="3" fill="#1b5e20"/>

    <rect x="10" y="4" width="10" height="24" fill="#fffdd0"/>
  <rect x="10.5" y="4.5" width="2" height="1" fill="#fffdd0"/>
  <rect x="13" y="4.5" width="2" height="1" fill="#fffdd0"/>
  <rect x="15.5" y="4.5" width="2" height="1" fill="#fffdd0"/>
  <rect x="18" y="4.5" width="2" height="1" fill="#fffdd0"/>
  <rect x="10.5" y="6" width="2" height="1" fill="#fffdd0"/>
  <rect x="13" y="6" width="2" height="1" fill="#fffdd0"/>
  <rect x="15.5" y="6" width="2" height="1" fill="#fffdd0"/>
  <rect x="18" y="6" width="2" height="1" fill="#fffdd0"/>
  <rect x="10.5" y="26" width="2" height="1" fill="#fffdd0"/>
  <rect x="13" y="26" width="2" height="1" fill="#fffdd0"/>
  <rect x="15.5" y="26" width="2" height="1" fill="#fffdd0"/>
  <rect x="18" y="26" width="2" height="1" fill="#fffdd0"/>

    <rect x="11.5" y="14" width="2.5" height="3" fill="#ffcc80" stroke="#333" stroke-width="0.5"/>
  <rect x="16" y="14" width="2.5" height="3" fill="#ffcc80" stroke="#333" stroke-width="0.5"/>

    <circle cx="15" cy="10" r="3.5" fill="#333"/>
  <circle cx="15" cy="10" r="3" fill="#ffffff"/>
  <path d="M15 7.5 V10 H17.5" stroke="#111" stroke-width="0.75" fill="none"/>
  <circle cx="15" cy="7.25" r="0.25" fill="#333"/> <circle cx="17.75" cy="10" r="0.25" fill="#333"/> <circle cx="15" cy="12.75" r="0.25" fill="#333"/> <circle cx="12.25" cy="10" r="0.25" fill="#333"/>

    <path d="M10 4 L15 0 L20 4 Z" fill="#fffdd0"/>
  <rect x="14.5" y="0" width="1" height="1.5" fill="#333"/>
  <path d="M14.5 0.25 H17 L15.5 1 Z" fill="#d32f2f"/>

      <path d="M12.5 20 Q15 18 17.5 20" stroke="#E65100" stroke-width="1" fill="none"/>
    <rect x="13" y="20" width="4" height="8" fill="#F57C00"/>
    <rect x="13.5" y="20.5" width="1" height="3" fill="#fffdd0"/>
  <rect x="15.5" y="20.5" width="1" height="3" fill="#fffdd0"/>
    <circle cx="16.25" cy="24" r="0.5" fill="#795548"/>
</svg>
